# xmcd
#
# Track frame offsets:
#	182
#	17762
#	44680
#	72095
#	98167
#
# Disc length: 1553 seconds
#
# Revision: 1
# Processed by: cddbd v1.5.1PL0 Copyright (c) Steve Scherf et al.
# Submitted via: audiograbber 1.83.01
#
DISCID=3c060f05
DTITLE=Netzwerk - Passion
DYEAR=1995
DGENRE=Dance
TTITLE0=Passion (Radio Mix)
TTITLE1=Passion (Extended 12" Mix)
TTITLE2=Passion (Borealis Mix)
TTITLE3=Passion (Trance Mix)
TTITLE4=Passion (Acapella)
EXTD=
EXTT0=
EXTT1=
EXTT2=
EXTT3=
EXTT4=
PLAYORDER=
